<?xml version="1.0" standalone="no"?>
<!DOCTYPE svg PUBLIC "-//W3C//DTD SVG 20010904//EN"
 "http://www.w3.org/TR/2001/REC-SVG-20010904/DTD/svg10.dtd">
<svg version="1.0" xmlns="http://www.w3.org/2000/svg"
 width="487.000000pt" height="513.000000pt" viewBox="0 0 487.000000 513.000000"
 preserveAspectRatio="xMidYMid meet">

<g transform="translate(0.000000,513.000000) scale(0.100000,-0.100000)"
fill="#000000" stroke="none">
<path d="M2360 4884 c-63 -13 -153 -30 -200 -39 -47 -8 -141 -26 -210 -39 -69
-14 -188 -37 -265 -51 -77 -14 -194 -37 -260 -50 -66 -13 -160 -31 -210 -40
-49 -9 -155 -29 -235 -45 -80 -16 -221 -43 -313 -61 -163 -31 -168 -33 -163
-55 3 -12 20 -102 36 -201 17 -98 33 -184 36 -192 2 -8 9 -41 14 -75 5 -34 27
-169 50 -301 23 -132 47 -272 53 -312 7 -39 15 -74 18 -77 3 -3 30 -2 60 3 30
5 108 14 174 21 219 22 389 41 450 50 33 6 84 10 113 10 28 0 52 4 52 8 0 5
-18 17 -40 27 -38 17 -78 17 -137 -1 -17 -5 -23 -2 -23 10 0 12 -9 16 -34 16
-28 0 -40 7 -62 35 -34 46 -22 63 49 67 49 3 51 4 28 16 -28 17 -100 19 -204
8 l-78 -9 -39 38 c-22 21 -37 42 -34 47 3 4 31 8 62 8 72 0 58 17 -25 30 -100
16 -149 44 -167 94 -3 10 -2 24 4 31 8 9 5 22 -9 46 -24 42 -37 104 -23 113 6
4 17 -18 27 -50 12 -41 30 -71 66 -109 58 -61 123 -98 273 -154 174 -65 279
-125 348 -200 l60 -64 92 12 c51 6 200 12 333 12 l241 0 -31 82 -30 81 64 58
c35 32 72 58 82 58 26 0 170 -30 185 -39 8 -5 29 -42 47 -84 l33 -75 -25 -24
c-14 -13 -29 -31 -34 -40 -9 -17 0 -18 120 -18 l129 0 7 41 c9 54 120 253 153
275 l25 16 -7 -42 c-10 -64 -69 -182 -115 -233 -23 -24 -41 -47 -41 -49 0 -3
44 -8 98 -10 53 -3 144 -13 202 -21 58 -9 182 -25 275 -37 94 -12 195 -25 225
-30 30 -5 93 -13 140 -19 47 -6 135 -18 195 -27 61 -9 144 -19 186 -21 l76 -5
7 44 c4 23 12 68 16 98 12 73 45 265 65 370 8 47 22 126 30 175 12 83 60 354
85 484 5 30 8 57 5 59 -3 3 -24 8 -47 12 -24 4 -79 14 -123 23 -70 14 -366 71
-510 97 -27 5 -129 25 -225 44 -163 32 -290 56 -485 92 -44 9 -111 22 -150 29
-38 8 -143 28 -233 45 -89 17 -168 32 -175 34 -6 2 -64 -7 -127 -20z m55 -524
c-28 -31 -222 -120 -262 -120 -44 0 -37 11 35 58 58 36 177 81 221 82 23 0 24
-1 6 -20z m54 -82 c61 -35 72 -45 67 -62 -3 -12 -11 -49 -18 -84 l-12 -63 -84
-39 c-47 -22 -91 -40 -99 -40 -21 0 -153 80 -153 93 0 5 9 41 20 79 l21 68 87
45 c48 24 90 44 93 44 4 1 39 -18 78 -41z m303 12 c25 -17 64 -50 85 -73 45
-48 99 -135 90 -144 -19 -18 -197 155 -225 218 -15 37 -7 36 50 -1z m17 -111
c36 -39 70 -78 74 -86 5 -8 2 -45 -8 -87 l-16 -73 -52 -7 c-118 -14 -118 -14
-195 71 l-69 77 13 60 c8 34 16 71 19 83 5 20 12 22 78 26 39 1 76 4 81 5 5 1
39 -30 75 -69z m-1904 -151 c-6 -32 13 -96 37 -126 8 -10 13 -9 23 5 11 15 14
14 28 -14 18 -33 75 -81 120 -101 40 -17 50 -15 37 7 -14 27 -13 31 9 31 11 0
32 -15 48 -34 45 -54 183 -141 183 -116 0 5 -4 12 -10 15 -21 13 -10 35 19 35
37 0 73 -29 107 -87 15 -27 40 -61 56 -78 50 -53 31 -64 -20 -11 -42 43 -132
90 -306 161 -170 68 -187 77 -256 130 -77 59 -116 142 -94 199 11 29 25 17 19
-16z m1349 -13 c82 -50 78 -42 92 -186 l6 -65 -69 -61 -69 -61 -75 39 -76 40
-12 115 c-11 115 -11 116 11 134 13 10 43 34 68 54 25 20 46 36 47 36 1 0 36
-20 77 -45z m1800 -1 c25 -66 -49 -170 -164 -229 -25 -12 -103 -46 -175 -75
-153 -62 -207 -90 -257 -139 -47 -43 -50 -22 -5 29 17 21 44 56 59 79 28 41
64 59 94 47 15 -6 15 -8 -1 -26 -54 -59 89 16 150 79 21 23 45 41 52 41 16 0
17 -12 1 -28 -20 -20 -2 -23 41 -6 23 9 59 37 82 62 32 37 42 43 49 32 8 -13
12 -12 24 5 21 29 39 99 31 124 -7 24 10 29 19 5z m-2040 -28 c20 -49 33 -295
16 -326 -12 -22 -13 -22 -22 -5 -36 63 -50 247 -26 326 6 22 13 39 14 39 2 0
10 -15 18 -34z m2057 -81 c-12 -28 -18 -57 -15 -74 5 -22 0 -33 -25 -54 -27
-23 -53 -31 -168 -53 -42 -8 -24 -24 27 -24 28 0 50 -4 50 -8 0 -4 -16 -23
-35 -42 l-35 -34 -89 13 c-66 9 -99 10 -130 1 -56 -15 -61 -30 -9 -30 56 0 73
-11 60 -36 -18 -33 -50 -57 -71 -51 -11 2 -22 -1 -25 -8 -3 -9 -24 -11 -75 -7
l-72 5 -39 -42 c-41 -43 -51 -40 -25 8 39 77 156 151 380 241 72 29 149 66
172 81 53 37 100 94 114 139 19 62 22 67 26 43 3 -12 -5 -43 -16 -68z m-1175
-76 l41 -81 -49 -87 c-26 -47 -49 -89 -50 -92 -2 -4 -43 -10 -93 -14 l-90 -7
-36 83 -36 83 53 91 52 90 68 6 c38 3 76 6 84 7 11 1 30 -26 56 -79z"/>
<path d="M2418 3405 c-2 -3 -60 -9 -129 -14 -68 -5 -185 -16 -259 -25 -216
-25 -315 -35 -485 -51 -88 -9 -194 -20 -235 -24 -290 -35 -552 -61 -601 -61
-45 0 -47 -1 -80 -55 -49 -78 -87 -140 -192 -312 -50 -83 -105 -173 -122 -200
-16 -26 -42 -69 -57 -94 l-27 -46 92 -134 c51 -74 109 -159 130 -189 21 -30
73 -105 115 -165 108 -155 117 -165 143 -165 13 0 101 -9 194 -19 94 -11 262
-29 375 -41 113 -12 268 -28 345 -36 77 -9 183 -20 235 -24 52 -5 154 -15 225
-24 368 -42 364 -42 730 -6 55 6 145 15 200 20 55 5 192 19 305 30 113 11 302
29 420 40 576 54 514 44 542 89 39 64 100 165 112 186 26 44 82 138 96 160 23
35 84 139 123 208 7 12 20 34 30 49 21 31 20 32 -49 139 -37 58 -59 95 -98
164 -6 11 -25 40 -41 65 -15 25 -56 90 -90 146 -100 164 -87 153 -190 164 -50
5 -151 18 -225 29 -74 12 -187 27 -250 35 -159 20 -246 32 -380 50 -63 9 -185
25 -270 36 -85 11 -218 29 -295 40 -285 39 -328 43 -337 35z m-1166 -465 l58
0 0 -50 c0 -47 -1 -50 -26 -50 -17 0 -28 6 -31 20 -4 14 -14 20 -34 20 l-29 0
0 -124 c0 -115 1 -124 20 -129 12 -3 20 -14 20 -26 0 -20 -5 -21 -80 -21 -75
0 -80 1 -80 21 0 12 8 23 20 26 19 5 20 14 20 129 l0 124 -29 0 c-20 0 -30 -6
-34 -20 -3 -13 -14 -20 -30 -20 -23 0 -25 4 -29 50 -4 60 -3 61 116 55 49 -3
115 -5 148 -5z m838 -12 c42 -21 45 -26 48 -66 l3 -43 -32 3 c-26 2 -35 9 -39
27 -10 45 -110 49 -126 6 -10 -24 12 -42 87 -70 77 -30 109 -62 109 -110 0
-50 -32 -82 -93 -94 -57 -12 -112 -3 -152 23 -20 13 -25 25 -25 56 0 38 2 40
30 40 25 0 30 -4 30 -25 0 -45 90 -64 125 -25 17 18 17 21 1 45 -9 14 -22 25
-29 25 -25 0 -136 59 -146 79 -15 27 -14 74 2 93 23 30 82 58 122 58 23 0 61
-10 85 -22z m1471 12 l69 0 0 -50 c0 -49 0 -50 -31 -50 -22 0 -32 5 -36 20 -5
17 -14 20 -59 20 l-54 0 0 -45 0 -44 63 -3 c62 -3 62 -3 62 -33 0 -30 0 -30
-62 -33 l-63 -3 0 -43 c0 -35 4 -45 20 -49 12 -3 20 -14 20 -26 0 -20 -5 -21
-80 -21 -75 0 -80 1 -80 21 0 12 8 23 20 26 19 5 20 14 20 133 0 119 -1 128
-20 133 -12 3 -20 14 -20 26 0 17 8 21 53 24 28 2 65 2 81 0 16 -1 59 -3 97
-3z m329 -12 c43 -22 45 -25 45 -68 0 -39 -3 -45 -22 -48 -17 -3 -25 5 -37 32
-14 35 -17 36 -66 36 -46 0 -52 -3 -70 -32 -24 -40 -27 -126 -5 -167 30 -58
118 -64 139 -10 8 22 17 29 38 29 26 0 28 -3 28 -39 0 -48 -30 -76 -90 -86
-89 -15 -166 21 -195 92 -23 55 -19 150 8 198 45 79 141 106 227 63z m-2326 2
c30 -11 66 -65 66 -97 0 -12 -10 -34 -23 -49 l-23 -27 23 -23 c15 -15 23 -35
23 -57 0 -19 7 -40 15 -47 8 -7 15 -21 15 -31 0 -15 -8 -19 -39 -19 -47 0 -61
15 -68 72 -7 57 -18 68 -64 68 l-39 0 0 -44 c0 -35 4 -45 20 -49 12 -3 20 -14
20 -26 0 -20 -5 -21 -80 -21 -75 0 -80 1 -80 21 0 12 8 23 20 26 19 5 20 14
20 130 0 116 -1 125 -20 130 -13 3 -20 14 -20 29 0 24 1 24 104 24 58 0 116
-4 130 -10z m266 -14 c0 -15 -7 -26 -20 -29 -19 -5 -20 -14 -20 -121 0 -104 2
-118 20 -133 11 -10 20 -25 20 -35 0 -16 -10 -18 -75 -18 -68 0 -75 2 -75 20
0 10 8 23 17 29 15 8 19 28 22 131 3 116 2 122 -18 127 -14 3 -21 13 -21 29 0
23 3 24 75 24 72 0 75 -1 75 -24z m480 -1 c0 -16 -6 -25 -15 -25 -12 0 -15
-19 -15 -114 0 -107 1 -116 22 -130 12 -9 32 -16 43 -16 11 0 31 7 43 16 21
14 22 23 22 130 0 95 -3 114 -15 114 -9 0 -15 9 -15 25 0 24 2 25 75 25 73 0
75 -1 75 -25 0 -18 -5 -25 -20 -25 -19 0 -20 -7 -20 -119 0 -114 -1 -121 -26
-150 -26 -31 -76 -51 -128 -51 -43 0 -111 36 -124 66 -7 14 -12 73 -12 135 0
102 -2 111 -20 116 -13 3 -20 14 -20 29 0 23 3 24 75 24 73 0 75 -1 75 -25z
m390 0 c0 -18 -5 -25 -20 -25 -19 0 -20 -7 -20 -125 l0 -125 50 0 c43 0 50 3
50 20 0 16 7 20 30 20 29 0 30 -1 30 -50 l0 -50 -135 0 -135 0 0 25 c0 16 6
25 15 25 13 0 15 21 15 130 0 109 -2 130 -15 130 -9 0 -15 9 -15 25 0 24 2 25
75 25 73 0 75 -1 75 -25z m405 -122 c28 -81 58 -154 68 -162 9 -9 17 -23 17
-33 0 -15 -9 -18 -65 -18 -56 0 -65 3 -65 18 0 10 5 23 10 28 6 6 8 18 4 27
-5 13 -19 17 -64 17 -49 0 -58 -3 -63 -19 -3 -12 1 -22 9 -25 8 -3 14 -15 14
-26 0 -18 -6 -20 -65 -20 -54 0 -65 3 -65 17 0 9 7 24 15 33 11 12 115 290
115 307 0 2 19 3 43 3 l43 0 49 -147z m-1015 -508 c0 -16 -6 -25 -15 -25 -8 0
-15 5 -15 10 0 6 -16 10 -35 10 -31 0 -35 -3 -35 -25 0 -22 4 -25 35 -25 24 0
35 -5 35 -15 0 -10 -11 -15 -35 -15 -32 0 -35 -2 -35 -30 0 -27 3 -30 34 -30
21 0 36 6 40 16 8 22 26 7 26 -22 0 -23 -2 -24 -75 -24 -60 0 -75 3 -75 15 0
8 5 15 10 15 6 0 10 30 10 70 0 40 -4 70 -10 70 -5 0 -10 7 -10 15 0 12 15 15
75 15 73 0 75 -1 75 -25z m488 13 c23 -23 13 -69 -24 -114 l-35 -44 25 0 c14
0 28 5 31 10 11 18 25 10 25 -15 0 -24 -3 -25 -59 -25 -33 0 -63 5 -66 10 -4
6 14 34 39 62 53 60 61 98 21 98 -14 0 -28 -7 -31 -15 -6 -15 -34 -21 -34 -7
0 4 7 18 16 30 17 25 71 31 92 10z m157 -18 c35 -69 5 -170 -51 -170 -42 0
-64 33 -64 98 0 73 18 102 65 102 28 0 37 -6 50 -30z m139 14 c25 -25 19 -59
-20 -106 -36 -42 -36 -43 -13 -46 13 -2 25 1 27 7 7 22 32 11 32 -14 0 -24 -2
-25 -65 -25 -75 0 -80 8 -34 60 47 52 62 78 55 95 -7 19 -45 19 -52 0 -7 -18
-34 -20 -34 -3 0 41 73 63 104 32z m106 -68 c0 -67 3 -85 16 -90 27 -10 5 -26
-37 -26 -28 0 -39 4 -39 15 0 8 7 15 15 15 12 0 15 14 15 65 0 51 -3 65 -15
65 -21 0 -19 28 3 33 41 11 42 9 42 -77z m-680 50 c0 -8 6 -17 13 -20 10 -5
10 -7 0 -12 -20 -9 -17 -104 2 -104 8 0 15 -7 15 -16 0 -11 -8 -14 -27 -12
-27 3 -28 6 -31 61 -2 39 -8 60 -18 64 -19 7 -18 23 1 23 8 0 15 7 15 15 0 8
7 15 15 15 8 0 15 -6 15 -14z m-96 -22 c18 -7 22 -44 5 -44 -7 0 -17 7 -24 17
-7 10 -19 14 -29 10 -26 -10 -15 -28 24 -41 38 -12 51 -45 30 -72 -13 -14 -56
-19 -84 -8 -20 8 -21 44 -1 44 8 0 15 -4 15 -10 0 -5 11 -10 25 -10 34 0 32
26 -2 35 -36 9 -53 23 -53 46 0 31 52 49 94 33z m176 -124 c0 -11 -7 -20 -15
-20 -8 0 -15 9 -15 20 0 11 7 20 15 20 8 0 15 -9 15 -20z"/>
<path d="M1447 2873 c-2 -4 -5 -23 -5 -41 -1 -39 23 -55 67 -46 35 7 52 45 34
73 -11 17 -88 28 -96 14z"/>
<path d="M2997 2795 c-22 -65 -22 -65 19 -65 39 0 38 -5 9 80 l-12 34 -16 -49z"/>
<path d="M2656 2264 c-3 -9 -6 -33 -6 -54 0 -51 8 -70 31 -70 23 0 39 29 39
70 0 17 -5 40 -10 51 -13 23 -46 25 -54 3z"/>
<path d="M990 1710 c0 -3 9 -54 21 -115 11 -60 33 -189 49 -286 16 -97 32
-183 36 -190 3 -8 48 -41 100 -74 116 -74 167 -107 783 -519 l492 -328 433
288 c239 159 505 337 592 395 88 59 197 131 243 160 46 29 90 59 96 65 7 7 17
39 23 71 14 71 69 396 80 476 l9 57 -41 0 c-23 0 -70 -5 -106 -10 -36 -6 -141
-17 -235 -25 -93 -8 -226 -22 -295 -31 -97 -13 -249 -17 -680 -21 -540 -5
-799 3 -935 28 -27 5 -106 14 -175 20 -69 5 -172 16 -230 24 -112 15 -260 24
-260 15z m984 -533 c52 -23 40 -32 -24 -18 -78 17 -187 14 -194 -4 -3 -8 -10
-15 -16 -15 -6 0 -8 4 -5 10 3 6 -1 7 -10 4 -9 -4 -13 -9 -11 -12 7 -7 -14
-32 -26 -32 -6 0 -4 8 3 18 7 9 -1 4 -19 -12 -33 -31 -48 -30 -38 1 7 21 61
60 102 73 44 14 193 6 238 -13z m166 13 c0 -5 -4 -10 -10 -10 -22 0 -8 -48 23
-77 67 -66 202 -97 240 -55 23 25 30 67 17 92 -10 19 -18 22 -56 17 -34 -3
-44 -1 -44 10 0 8 -5 11 -11 8 -23 -15 -4 -40 31 -40 30 0 35 -3 35 -24 0 -30
-24 -46 -59 -37 -62 15 -48 110 18 115 80 6 90 4 113 -23 43 -50 25 -124 -37
-158 -49 -27 -119 -18 -227 29 -72 31 -101 38 -161 40 -71 2 -72 2 -66 -21 3
-13 1 -27 -4 -30 -5 -3 -12 6 -15 19 -4 22 5 37 23 41 3 0 13 4 22 8 16 7 16
9 1 24 -15 16 -15 17 0 20 9 2 30 -6 46 -17 16 -12 35 -21 43 -21 7 1 1 7 -14
15 -19 11 -25 20 -21 35 6 23 23 26 41 8 9 -9 12 -7 12 8 0 12 3 24 7 27 10
11 53 8 53 -3z m718 -18 c4 -25 12 -28 30 -10 10 10 15 10 22 -2 16 -25 11
-38 -17 -45 -16 -4 -22 -10 -16 -12 7 -2 31 6 53 18 39 22 65 20 42 -3 -15
-15 -15 -25 1 -31 6 -2 0 -3 -14 -1 -38 4 -105 -13 -194 -51 -105 -44 -162
-52 -209 -30 -64 30 -86 108 -45 159 16 21 29 26 64 26 26 0 47 -6 55 -15 14
-17 10 -18 -38 -15 -18 1 -40 -4 -48 -10 -20 -17 -18 -73 5 -101 39 -49 193
-12 256 62 25 31 34 69 14 69 -5 0 -7 5 -4 11 11 17 40 5 43 -19z m383 3 c48
-25 69 -45 69 -68 0 -20 -2 -19 -27 5 -28 26 -65 48 -80 48 -4 0 -1 -5 7 -10
9 -6 10 -10 3 -10 -7 0 -16 6 -20 13 -16 27 -117 27 -240 2 l-28 -6 28 16 c65
37 223 43 288 10z m-747 7 c2 -4 -2 -16 -10 -27 -13 -17 -16 -18 -24 -5 -15
24 -12 40 9 40 11 0 22 -3 25 -8z m186 -57 c0 -12 -9 -30 -20 -40 -29 -26 -75
-10 -75 25 0 22 4 25 30 23 35 -3 47 13 34 41 -9 18 -7 17 10 -3 12 -13 21
-33 21 -46z m584 -14 c-2 -3 -12 3 -22 13 -16 17 -16 18 5 5 12 -7 20 -15 17
-18z m-1628 -41 c4 0 12 7 18 15 8 10 16 12 26 5 13 -8 13 -13 2 -31 -11 -18
-11 -20 0 -17 7 3 15 17 18 33 4 22 11 29 33 32 23 3 26 1 18 -9 -6 -7 -21
-26 -34 -42 -22 -27 -25 -28 -59 -17 -36 12 -49 28 -47 59 0 12 3 10 9 -5 5
-13 12 -23 16 -23z m1604 16 c0 -11 7 -28 17 -38 9 -10 11 -18 5 -18 -6 0 -20
12 -31 28 -12 15 -25 32 -30 38 -7 8 -3 11 15 10 16 -1 24 -7 24 -20z m55 -7
c4 -6 14 -8 22 -5 19 8 12 -14 -9 -28 -19 -11 -48 7 -48 30 0 16 26 19 35 3z
m-284 -42 c-13 -13 -15 1 -4 30 7 17 8 17 11 -1 2 -10 -1 -23 -7 -29z m-522
-28 c-11 -6 -39 -2 -39 6 0 2 5 16 10 31 l11 28 15 -29 c11 -21 12 -30 3 -36z
m-75 -60 c-40 -42 -114 -37 -114 8 0 8 15 12 50 10 36 -1 54 3 67 16 30 30 28
-2 -3 -34z m20 -34 c-35 -70 -56 -89 -89 -81 -18 5 -25 13 -25 32 0 23 3 24
34 18 32 -5 37 -3 65 37 17 23 31 49 32 58 0 11 2 12 6 3 3 -7 -7 -37 -23 -67z
m111 59 c14 -10 31 -13 56 -9 42 7 57 -6 33 -29 -24 -25 -67 -20 -97 12 -39
41 -34 58 8 26z m4 -84 c12 -6 33 -9 48 -8 19 2 28 -2 31 -14 5 -24 -32 -42
-58 -28 -22 12 -80 106 -80 130 0 8 9 -4 19 -27 11 -23 29 -46 40 -53z m-50
-37 c1 -57 -15 -101 -32 -84 -14 14 -16 120 -3 166 l8 30 13 -35 c8 -19 14
-54 14 -77z"/>
</g>
</svg>
